<mxfile host="Electron" modified="2023-11-23T00:02:55.685Z" agent="Mozilla/5.0 (Windows NT 10.0; Win64; x64) AppleWebKit/537.36 (KHTML, like Gecko) draw.io/22.1.2 Chrome/114.0.5735.289 Electron/25.9.4 Safari/537.36" etag="2cBkofZIzas_UGCG2Nd2" version="22.1.2" type="device">
  <diagram name="Page-1" id="HSFsAgi_DVxoS6GvNyLY">
    <mxGraphModel dx="819" dy="482" grid="1" gridSize="10" guides="1" tooltips="1" connect="1" arrows="1" fold="1" page="1" pageScale="1" pageWidth="850" pageHeight="1100" math="0" shadow="0">
      <root>
        <mxCell id="0" />
        <mxCell id="1" parent="0" />
        <mxCell id="XX6WCod0AnwrPn59T79B-14" value="ProjectileManager" style="swimlane;fontStyle=1;align=center;verticalAlign=top;childLayout=stackLayout;horizontal=1;startSize=26;horizontalStack=0;resizeParent=1;resizeParentMax=0;resizeLast=0;collapsible=1;marginBottom=0;whiteSpace=wrap;html=1;" vertex="1" parent="1">
          <mxGeometry x="70" y="40" width="315" height="130" as="geometry" />
        </mxCell>
        <mxCell id="XX6WCod0AnwrPn59T79B-15" value="ProjectilePool : TArray&amp;lt;Projectile*&amp;gt;" style="text;strokeColor=none;fillColor=none;align=left;verticalAlign=top;spacingLeft=4;spacingRight=4;overflow=hidden;rotatable=0;points=[[0,0.5],[1,0.5]];portConstraint=eastwest;whiteSpace=wrap;html=1;" vertex="1" parent="XX6WCod0AnwrPn59T79B-14">
          <mxGeometry y="26" width="315" height="26" as="geometry" />
        </mxCell>
        <mxCell id="XX6WCod0AnwrPn59T79B-16" value="" style="line;strokeWidth=1;fillColor=none;align=left;verticalAlign=middle;spacingTop=-1;spacingLeft=3;spacingRight=3;rotatable=0;labelPosition=right;points=[];portConstraint=eastwest;strokeColor=inherit;" vertex="1" parent="XX6WCod0AnwrPn59T79B-14">
          <mxGeometry y="52" width="315" height="8" as="geometry" />
        </mxCell>
        <mxCell id="XX6WCod0AnwrPn59T79B-22" value="" style="endArrow=open;endFill=1;endSize=12;html=1;rounded=0;" edge="1" parent="XX6WCod0AnwrPn59T79B-14" target="XX6WCod0AnwrPn59T79B-23">
          <mxGeometry width="160" relative="1" as="geometry">
            <mxPoint x="312" y="70" as="sourcePoint" />
            <mxPoint x="472" y="70" as="targetPoint" />
          </mxGeometry>
        </mxCell>
        <mxCell id="XX6WCod0AnwrPn59T79B-27" style="edgeStyle=orthogonalEdgeStyle;rounded=0;orthogonalLoop=1;jettySize=auto;html=1;exitX=0.476;exitY=1;exitDx=0;exitDy=0;exitPerimeter=0;" edge="1" parent="XX6WCod0AnwrPn59T79B-14" source="XX6WCod0AnwrPn59T79B-17">
          <mxGeometry relative="1" as="geometry">
            <mxPoint x="300" y="220" as="targetPoint" />
            <Array as="points">
              <mxPoint x="150" y="220" />
            </Array>
          </mxGeometry>
        </mxCell>
        <mxCell id="XX6WCod0AnwrPn59T79B-17" value="void ProjectileManager()&lt;br&gt;void AddProjectileToPool(Projectile*)&lt;br&gt;void RemoveProjectileFromPool(Projectile*)&lt;br&gt;void CleanPool()" style="text;strokeColor=none;fillColor=none;align=left;verticalAlign=top;spacingLeft=4;spacingRight=4;overflow=hidden;rotatable=0;points=[[0,0.5],[1,0.5]];portConstraint=eastwest;whiteSpace=wrap;html=1;" vertex="1" parent="XX6WCod0AnwrPn59T79B-14">
          <mxGeometry y="60" width="315" height="70" as="geometry" />
        </mxCell>
        <mxCell id="XX6WCod0AnwrPn59T79B-23" value="Projectile" style="html=1;whiteSpace=wrap;" vertex="1" parent="1">
          <mxGeometry x="630" y="90" width="110" height="50" as="geometry" />
        </mxCell>
        <mxCell id="XX6WCod0AnwrPn59T79B-24" value="Binds to Projectile&#39;s Delegate &lt;br&gt;to know if it is dead" style="text;html=1;align=center;verticalAlign=middle;resizable=0;points=[];autosize=1;strokeColor=none;fillColor=none;" vertex="1" parent="1">
          <mxGeometry x="405" y="73" width="180" height="40" as="geometry" />
        </mxCell>
        <mxCell id="XX6WCod0AnwrPn59T79B-25" style="edgeStyle=orthogonalEdgeStyle;rounded=0;orthogonalLoop=1;jettySize=auto;html=1;exitX=0.5;exitY=1;exitDx=0;exitDy=0;entryX=1.007;entryY=0.869;entryDx=0;entryDy=0;entryPerimeter=0;" edge="1" parent="1" source="XX6WCod0AnwrPn59T79B-23" target="XX6WCod0AnwrPn59T79B-17">
          <mxGeometry relative="1" as="geometry" />
        </mxCell>
        <mxCell id="XX6WCod0AnwrPn59T79B-26" value="Should be aware of ProjectileManager&lt;br&gt;to add itself to the pool" style="text;html=1;align=center;verticalAlign=middle;resizable=0;points=[];autosize=1;strokeColor=none;fillColor=none;" vertex="1" parent="1">
          <mxGeometry x="405" y="160" width="230" height="40" as="geometry" />
        </mxCell>
        <mxCell id="XX6WCod0AnwrPn59T79B-28" value="GameModeBase" style="rounded=0;whiteSpace=wrap;html=1;" vertex="1" parent="1">
          <mxGeometry x="370" y="230" width="120" height="60" as="geometry" />
        </mxCell>
        <mxCell id="XX6WCod0AnwrPn59T79B-29" value="Binds to GameOver delegate" style="text;html=1;align=center;verticalAlign=middle;resizable=0;points=[];autosize=1;strokeColor=none;fillColor=none;" vertex="1" parent="1">
          <mxGeometry x="180" y="260" width="180" height="30" as="geometry" />
        </mxCell>
      </root>
    </mxGraphModel>
  </diagram>
</mxfile>
